{
	"asset":{
		"generator":"Khronos glTF Blender I/O v4.0.44",
		"version":"2.0"
	},
	"scene":0,
	"scenes":[
		{
			"name":"Scene",
			"nodes":[
				0,
				1,
				2,
				3,
				4,
				5,
				6,
				7,
				8,
				9,
				10,
				11,
				12,
				13,
				14,
				15,
				16,
				17
			]
		}
	],
	"nodes":[
		{
			"mesh":0,
			"name":"Cube.001",
			"scale":[
				3.296318531036377,
				3.296318531036377,
				3.296318531036377
			],
			"translation":[
				-0.36830341815948486,
				4.086629390716553,
				-6.917008399963379
			]
		},
		{
			"mesh":1,
			"name":"Cylinder",
			"scale":[
				0.0552302822470665,
				0.08688972145318985,
				0.0552302822470665
			],
			"translation":[
				-3.639064073562622,
				7.852893352508545,
				-0.005854368209838867
			]
		},
		{
			"mesh":2,
			"name":"Cylinder.001",
			"scale":[
				0.0552302822470665,
				0.08688972145318985,
				0.0552302822470665
			],
			"translation":[
				-3.639064073562622,
				7.913087368011475,
				0.23064136505126953
			]
		},
		{
			"mesh":3,
			"name":"Torus.001",
			"rotation":[
				0.01974952034652233,
				-0.7068309187889099,
				0.7068309187889099,
				0.0197494775056839
			],
			"scale":[
				0.21182195842266083,
				0.21182195842266083,
				0.21182195842266083
			],
			"translation":[
				-4.230835437774658,
				11.51411247253418,
				-11.660494804382324
			]
		},
		{
			"mesh":4,
			"name":"Torus",
			"rotation":[
				0.01974952034652233,
				-0.7068309187889099,
				0.7068309187889099,
				0.0197494775056839
			],
			"scale":[
				0.21182195842266083,
				0.21182195842266083,
				0.21182195842266083
			],
			"translation":[
				-1.3458935022354126,
				11.51411247253418,
				-9.905656814575195
			]
		},
		{
			"mesh":5,
			"name":"Plane",
			"rotation":[
				-0.5137699246406555,
				0.5137699246406555,
				-0.4858400225639343,
				0.4858400225639343
			],
			"scale":[
				1.3332931995391846,
				1.3332934379577637,
				8.371013641357422
			],
			"translation":[
				-0.9898403882980347,
				19.45266342163086,
				-3.539060592651367
			]
		},
		{
			"mesh":6,
			"name":"Cylinder.002",
			"rotation":[
				0.48583996295928955,
				0.5137699246406555,
				-0.5137698650360107,
				0.4858400225639343
			],
			"scale":[
				0.3254242241382599,
				8.725692749023438,
				0.3254242241382599
			],
			"translation":[
				-0.9761650562286377,
				19.53696060180664,
				-3.2945265769958496
			]
		},
		{
			"mesh":7,
			"name":"Cylinder.003",
			"rotation":[
				0,
				0.7265803217887878,
				0,
				0.6870815753936768
			],
			"scale":[
				1.3332931995391846,
				1.3332931995391846,
				1.3332931995391846
			],
			"translation":[
				-0.9455441236495972,
				15.667244911193848,
				-2.747013568878174
			]
		},
		{
			"mesh":8,
			"name":"Circle.003",
			"rotation":[
				0,
				0.7265803217887878,
				0,
				0.6870815753936768
			],
			"scale":[
				0.09184861928224564,
				0.09184861928224564,
				0.09184861928224564
			],
			"translation":[
				-1.346421241760254,
				11.630693435668945,
				-9.907722473144531
			]
		},
		{
			"mesh":9,
			"name":"Circle.001",
			"rotation":[
				0,
				0.7265803217887878,
				0,
				0.6870815753936768
			],
			"scale":[
				0.09184861928224564,
				0.09184861928224564,
				0.09184861928224564
			],
			"translation":[
				-4.2313618659973145,
				11.630693435668945,
				-11.662559509277344
			]
		},
		{
			"mesh":10,
			"name":"Torus.002",
			"rotation":[
				0.018569674342870712,
				-0.7068628668785095,
				0.7068629264831543,
				0.01856963150203228
			],
			"scale":[
				0.15887124836444855,
				0.15887124836444855,
				0.15887124836444855
			],
			"translation":[
				-2.5368242263793945,
				9.890867233276367,
				-17.451740264892578
			]
		},
		{
			"mesh":11,
			"name":"Torus.003",
			"rotation":[
				0.018569674342870712,
				-0.7068628668785095,
				0.7068629264831543,
				0.01856963150203228
			],
			"scale":[
				0.15887124836444855,
				0.15887124836444855,
				0.15887124836444855
			],
			"translation":[
				-0.3774576187133789,
				9.890867233276367,
				-16.128355026245117
			]
		},
		{
			"mesh":12,
			"name":"Plane.001",
			"rotation":[
				-0.5129583477973938,
				0.512958288192749,
				-0.48669686913490295,
				0.48669692873954773
			],
			"scale":[
				1,
				1,
				6.278450012207031
			],
			"translation":[
				-0.12635231018066406,
				16.183799743652344,
				-11.352397918701172
			]
		},
		{
			"mesh":13,
			"name":"Cylinder.004",
			"rotation":[
				0.48669692873954773,
				0.5129582285881042,
				-0.5129581689834595,
				0.48669689893722534
			],
			"scale":[
				0.24407553672790527,
				6.544466018676758,
				0.24407553672790527
			],
			"translation":[
				-0.11670780181884766,
				15.908184051513672,
				-11.168959617614746
			]
		},
		{
			"mesh":14,
			"name":"Cylinder.005",
			"rotation":[
				0,
				0.7254324555397034,
				0,
				0.6882933378219604
			],
			"translation":[
				-0.09511280059814453,
				13.344648361206055,
				-10.758237838745117
			]
		},
		{
			"mesh":15,
			"name":"Circle.002",
			"rotation":[
				0,
				0.7254324555397034,
				0,
				0.6882933378219604
			],
			"scale":[
				0.06888853758573532,
				0.06888853758573532,
				0.06888853758573532
			],
			"translation":[
				-0.37784862518310547,
				9.978304862976074,
				-16.129905700683594
			]
		},
		{
			"mesh":16,
			"name":"Circle.004",
			"rotation":[
				0,
				0.7254324555397034,
				0,
				0.6882933378219604
			],
			"scale":[
				0.06888853758573532,
				0.06888853758573532,
				0.06888853758573532
			],
			"translation":[
				-2.5372142791748047,
				9.978304862976074,
				-17.453289031982422
			]
		},
		{
			"mesh":17,
			"name":"Cube",
			"scale":[
				3.296318531036377,
				3.296318531036377,
				3.296318531036377
			],
			"translation":[
				-0.36830341815948486,
				5.4421067237854,
				-6.917008399963379
			]
		}
	],
	"materials":[
		{
			"doubleSided":true,
			"name":"Material.176",
			"pbrMetallicRoughness":{
				"baseColorFactor":[
					0.8023863434791565,
					0.027990546077489853,
					0,
					1
				],
				"metallicFactor":0,
				"roughnessFactor":0.5
			}
		},
		{
			"doubleSided":true,
			"name":"Material.001",
			"pbrMetallicRoughness":{
				"baseColorFactor":[
					0.8001017570495605,
					0,
					0.0006338192033581436,
					1
				],
				"metallicFactor":0,
				"roughnessFactor":0.5
			}
		},
		{
			"doubleSided":true,
			"name":"Material.002",
			"pbrMetallicRoughness":{
				"baseColorFactor":[
					0.8001017570495605,
					0,
					0.0006338192033581436,
					1
				],
				"metallicFactor":0,
				"roughnessFactor":0.5
			}
		},
		{
			"doubleSided":true,
			"name":"Material.226",
			"pbrMetallicRoughness":{
				"baseColorFactor":[
					0.7252345085144043,
					0.8000156879425049,
					0.438970685005188,
					1
				],
				"metallicFactor":0,
				"roughnessFactor":0.5
			}
		},
		{
			"doubleSided":true,
			"name":"Material.230",
			"pbrMetallicRoughness":{
				"baseColorFactor":[
					0.023844975978136063,
					0.010782584547996521,
					0,
					1
				],
				"metallicFactor":0,
				"roughnessFactor":0.5
			}
		},
		{
			"doubleSided":true,
			"name":"Material.227",
			"pbrMetallicRoughness":{
				"baseColorFactor":[
					0.03871508315205574,
					0.019998179748654366,
					0,
					1
				],
				"metallicFactor":0,
				"roughnessFactor":0.5
			}
		},
		{
			"doubleSided":true,
			"name":"Material.225",
			"pbrMetallicRoughness":{
				"baseColorFactor":[
					0.7992171049118042,
					0.800133466720581,
					0.4256599247455597,
					1
				],
				"metallicFactor":0,
				"roughnessFactor":0.5
			}
		},
		{
			"doubleSided":true,
			"name":"Material.229",
			"pbrMetallicRoughness":{
				"baseColorFactor":[
					0.0486389622092247,
					0.018716707825660706,
					0,
					1
				],
				"metallicFactor":0,
				"roughnessFactor":0.5
			}
		},
		{
			"doubleSided":true,
			"name":"Material.228",
			"pbrMetallicRoughness":{
				"baseColorFactor":[
					0.007380189374089241,
					0.0033916402608156204,
					0,
					1
				],
				"metallicFactor":0,
				"roughnessFactor":0.5
			}
		},
		{
			"doubleSided":true,
			"name":"Material",
			"pbrMetallicRoughness":{
				"baseColorFactor":[
					0.050422556698322296,
					0.014401422813534737,
					0,
					1
				],
				"metallicFactor":0,
				"roughnessFactor":0.5
			}
		}
	],
	"meshes":[
		{
			"name":"Cube.001",
			"primitives":[
				{
					"attributes":{
						"POSITION":0,
						"NORMAL":1,
						"TEXCOORD_0":2
					},
					"indices":3,
					"material":0
				}
			]
		},
		{
			"name":"Cylinder",
			"primitives":[
				{
					"attributes":{
						"POSITION":4,
						"NORMAL":5,
						"TEXCOORD_0":6
					},
					"indices":7,
					"material":1
				}
			]
		},
		{
			"name":"Cylinder.001",
			"primitives":[
				{
					"attributes":{
						"POSITION":8,
						"NORMAL":9,
						"TEXCOORD_0":10
					},
					"indices":11,
					"material":2
				}
			]
		},
		{
			"name":"Torus.001",
			"primitives":[
				{
					"attributes":{
						"POSITION":12,
						"NORMAL":13,
						"TEXCOORD_0":14
					},
					"indices":15
				}
			]
		},
		{
			"name":"Torus",
			"primitives":[
				{
					"attributes":{
						"POSITION":16,
						"NORMAL":17,
						"TEXCOORD_0":18
					},
					"indices":15
				}
			]
		},
		{
			"name":"Mesh",
			"primitives":[
				{
					"attributes":{
						"POSITION":19,
						"NORMAL":20,
						"TEXCOORD_0":21
					},
					"indices":22,
					"material":3
				}
			]
		},
		{
			"name":"Cylinder.002",
			"primitives":[
				{
					"attributes":{
						"POSITION":23,
						"NORMAL":24,
						"TEXCOORD_0":25
					},
					"indices":26,
					"material":4
				}
			]
		},
		{
			"name":"Cylinder.003",
			"primitives":[
				{
					"attributes":{
						"POSITION":27,
						"NORMAL":28,
						"TEXCOORD_0":29
					},
					"indices":30,
					"material":5
				}
			]
		},
		{
			"name":"Circle.002",
			"primitives":[
				{
					"attributes":{
						"POSITION":31,
						"NORMAL":32
					},
					"indices":33
				}
			]
		},
		{
			"name":"Circle.001",
			"primitives":[
				{
					"attributes":{
						"POSITION":34,
						"NORMAL":35
					},
					"indices":33
				}
			]
		},
		{
			"name":"Torus.002",
			"primitives":[
				{
					"attributes":{
						"POSITION":36,
						"NORMAL":37,
						"TEXCOORD_0":38
					},
					"indices":15
				}
			]
		},
		{
			"name":"Torus.003",
			"primitives":[
				{
					"attributes":{
						"POSITION":39,
						"NORMAL":40,
						"TEXCOORD_0":41
					},
					"indices":15
				}
			]
		},
		{
			"name":"Mesh.001",
			"primitives":[
				{
					"attributes":{
						"POSITION":42,
						"NORMAL":43,
						"TEXCOORD_0":44
					},
					"indices":22,
					"material":6
				}
			]
		},
		{
			"name":"Cylinder.004",
			"primitives":[
				{
					"attributes":{
						"POSITION":45,
						"NORMAL":46,
						"TEXCOORD_0":47
					},
					"indices":26,
					"material":7
				}
			]
		},
		{
			"name":"Cylinder.005",
			"primitives":[
				{
					"attributes":{
						"POSITION":48,
						"NORMAL":49,
						"TEXCOORD_0":50
					},
					"indices":30,
					"material":8
				}
			]
		},
		{
			"name":"Circle.003",
			"primitives":[
				{
					"attributes":{
						"POSITION":51,
						"NORMAL":52
					},
					"indices":33
				}
			]
		},
		{
			"name":"Circle.004",
			"primitives":[
				{
					"attributes":{
						"POSITION":53,
						"NORMAL":54
					},
					"indices":33
				}
			]
		},
		{
			"name":"Cube",
			"primitives":[
				{
					"attributes":{
						"POSITION":55,
						"NORMAL":56,
						"TEXCOORD_0":57
					},
					"indices":58,
					"material":9
				}
			]
		}
	],
	"accessors":[
		{
			"bufferView":0,
			"componentType":5126,
			"count":802,
			"max":[
				0.9902470707893372,
				1.5665091276168823,
				3.8830103874206543
			],
			"min":[
				-1.0115247964859009,
				-1.5408000946044922,
				-4.94821310043335
			],
			"type":"VEC3"
		},
		{
			"bufferView":1,
			"componentType":5126,
			"count":802,
			"type":"VEC3"
		},
		{
			"bufferView":2,
			"componentType":5126,
			"count":802,
			"type":"VEC2"
		},
		{
			"bufferView":3,
			"componentType":5123,
			"count":1692,
			"type":"SCALAR"
		},
		{
			"bufferView":4,
			"componentType":5126,
			"count":363,
			"max":[
				1.348391056060791,
				4.962119102478027,
				1.307076096534729
			],
			"min":[
				-1.3483909368515015,
				-1,
				-1.3622568845748901
			],
			"type":"VEC3"
		},
		{
			"bufferView":5,
			"componentType":5126,
			"count":363,
			"type":"VEC3"
		},
		{
			"bufferView":6,
			"componentType":5126,
			"count":363,
			"type":"VEC2"
		},
		{
			"bufferView":7,
			"componentType":5123,
			"count":675,
			"type":"SCALAR"
		},
		{
			"bufferView":8,
			"componentType":5126,
			"count":286,
			"max":[
				1.348391056060791,
				4.962119102478027,
				1.307076096534729
			],
			"min":[
				-1.3483909368515015,
				-1,
				-1.3622568845748901
			],
			"type":"VEC3"
		},
		{
			"bufferView":9,
			"componentType":5126,
			"count":286,
			"type":"VEC3"
		},
		{
			"bufferView":10,
			"componentType":5126,
			"count":286,
			"type":"VEC2"
		},
		{
			"bufferView":11,
			"componentType":5123,
			"count":450,
			"type":"SCALAR"
		},
		{
			"bufferView":12,
			"componentType":5126,
			"count":2304,
			"max":[
				1.25,
				0.25,
				1.25
			],
			"min":[
				-1.25,
				-0.25,
				-1.25
			],
			"type":"VEC3"
		},
		{
			"bufferView":13,
			"componentType":5126,
			"count":2304,
			"type":"VEC3"
		},
		{
			"bufferView":14,
			"componentType":5126,
			"count":2304,
			"type":"VEC2"
		},
		{
			"bufferView":15,
			"componentType":5123,
			"count":3456,
			"type":"SCALAR"
		},
		{
			"bufferView":16,
			"componentType":5126,
			"count":2304,
			"max":[
				1.25,
				0.25,
				1.25
			],
			"min":[
				-1.25,
				-0.25,
				-1.25
			],
			"type":"VEC3"
		},
		{
			"bufferView":17,
			"componentType":5126,
			"count":2304,
			"type":"VEC3"
		},
		{
			"bufferView":18,
			"componentType":5126,
			"count":2304,
			"type":"VEC2"
		},
		{
			"bufferView":19,
			"componentType":5126,
			"count":671,
			"max":[
				6.800131320953369,
				1.9419867992401123,
				1.0000001192092896
			],
			"min":[
				-1.0678856372833252,
				-0.20819063484668732,
				-1.000000238418579
			],
			"type":"VEC3"
		},
		{
			"bufferView":20,
			"componentType":5126,
			"count":671,
			"type":"VEC3"
		},
		{
			"bufferView":21,
			"componentType":5126,
			"count":671,
			"type":"VEC2"
		},
		{
			"bufferView":22,
			"componentType":5123,
			"count":3360,
			"type":"SCALAR"
		},
		{
			"bufferView":23,
			"componentType":5126,
			"count":96,
			"max":[
				1,
				1,
				1
			],
			"min":[
				-1,
				-1,
				-1
			],
			"type":"VEC3"
		},
		{
			"bufferView":24,
			"componentType":5126,
			"count":96,
			"type":"VEC3"
		},
		{
			"bufferView":25,
			"componentType":5126,
			"count":96,
			"type":"VEC2"
		},
		{
			"bufferView":26,
			"componentType":5123,
			"count":180,
			"type":"SCALAR"
		},
		{
			"bufferView":27,
			"componentType":5126,
			"count":1166,
			"max":[
				0.3334364593029022,
				7.1822309494018555,
				0.3334364593029022
			],
			"min":[
				-0.3334364593029022,
				-7.348165512084961,
				-0.3334364593029022
			],
			"type":"VEC3"
		},
		{
			"bufferView":28,
			"componentType":5126,
			"count":1166,
			"type":"VEC3"
		},
		{
			"bufferView":29,
			"componentType":5126,
			"count":1166,
			"type":"VEC2"
		},
		{
			"bufferView":30,
			"componentType":5123,
			"count":2100,
			"type":"SCALAR"
		},
		{
			"bufferView":31,
			"componentType":5126,
			"count":4224,
			"max":[
				1.8996391296386719,
				13,
				1.8996391296386719
			],
			"min":[
				-1.8996391296386719,
				-1,
				-1.8996391296386719
			],
			"type":"VEC3"
		},
		{
			"bufferView":32,
			"componentType":5126,
			"count":4224,
			"type":"VEC3"
		},
		{
			"bufferView":33,
			"componentType":5123,
			"count":24576,
			"type":"SCALAR"
		},
		{
			"bufferView":34,
			"componentType":5126,
			"count":4224,
			"max":[
				1.8996391296386719,
				13,
				1.8996391296386719
			],
			"min":[
				-1.8996391296386719,
				-1,
				-1.8996391296386719
			],
			"type":"VEC3"
		},
		{
			"bufferView":35,
			"componentType":5126,
			"count":4224,
			"type":"VEC3"
		},
		{
			"bufferView":36,
			"componentType":5126,
			"count":2304,
			"max":[
				1.25,
				0.25,
				1.25
			],
			"min":[
				-1.25,
				-0.25,
				-1.25
			],
			"type":"VEC3"
		},
		{
			"bufferView":37,
			"componentType":5126,
			"count":2304,
			"type":"VEC3"
		},
		{
			"bufferView":38,
			"componentType":5126,
			"count":2304,
			"type":"VEC2"
		},
		{
			"bufferView":39,
			"componentType":5126,
			"count":2304,
			"max":[
				1.25,
				0.25,
				1.25
			],
			"min":[
				-1.25,
				-0.25,
				-1.25
			],
			"type":"VEC3"
		},
		{
			"bufferView":40,
			"componentType":5126,
			"count":2304,
			"type":"VEC3"
		},
		{
			"bufferView":41,
			"componentType":5126,
			"count":2304,
			"type":"VEC2"
		},
		{
			"bufferView":42,
			"componentType":5126,
			"count":671,
			"max":[
				6.800131320953369,
				1.9419867992401123,
				1.0000001192092896
			],
			"min":[
				-1.0678856372833252,
				-0.20819063484668732,
				-1.000000238418579
			],
			"type":"VEC3"
		},
		{
			"bufferView":43,
			"componentType":5126,
			"count":671,
			"type":"VEC3"
		},
		{
			"bufferView":44,
			"componentType":5126,
			"count":671,
			"type":"VEC2"
		},
		{
			"bufferView":45,
			"componentType":5126,
			"count":96,
			"max":[
				1,
				1,
				1
			],
			"min":[
				-1,
				-1,
				-1
			],
			"type":"VEC3"
		},
		{
			"bufferView":46,
			"componentType":5126,
			"count":96,
			"type":"VEC3"
		},
		{
			"bufferView":47,
			"componentType":5126,
			"count":96,
			"type":"VEC2"
		},
		{
			"bufferView":48,
			"componentType":5126,
			"count":1166,
			"max":[
				0.3334364593029022,
				7.1822309494018555,
				0.3334364593029022
			],
			"min":[
				-0.3334364593029022,
				-7.348165512084961,
				-0.3334364593029022
			],
			"type":"VEC3"
		},
		{
			"bufferView":49,
			"componentType":5126,
			"count":1166,
			"type":"VEC3"
		},
		{
			"bufferView":50,
			"componentType":5126,
			"count":1166,
			"type":"VEC2"
		},
		{
			"bufferView":51,
			"componentType":5126,
			"count":4224,
			"max":[
				1.8996391296386719,
				13,
				1.8996391296386719
			],
			"min":[
				-1.8996391296386719,
				-1,
				-1.8996391296386719
			],
			"type":"VEC3"
		},
		{
			"bufferView":52,
			"componentType":5126,
			"count":4224,
			"type":"VEC3"
		},
		{
			"bufferView":53,
			"componentType":5126,
			"count":4224,
			"max":[
				1.8996391296386719,
				13,
				1.8996391296386719
			],
			"min":[
				-1.8996391296386719,
				-1,
				-1.8996391296386719
			],
			"type":"VEC3"
		},
		{
			"bufferView":54,
			"componentType":5126,
			"count":4224,
			"type":"VEC3"
		},
		{
			"bufferView":55,
			"componentType":5126,
			"count":1018,
			"max":[
				1.244217872619629,
				1.624912977218628,
				4.151756763458252
			],
			"min":[
				-1.244217872619629,
				-1.5408000946044922,
				-5.106868743896484
			],
			"type":"VEC3"
		},
		{
			"bufferView":56,
			"componentType":5126,
			"count":1018,
			"type":"VEC3"
		},
		{
			"bufferView":57,
			"componentType":5126,
			"count":1018,
			"type":"VEC2"
		},
		{
			"bufferView":58,
			"componentType":5123,
			"count":3060,
			"type":"SCALAR"
		}
	],
	"bufferViews":[
		{
			"buffer":0,
			"byteLength":9624,
			"byteOffset":0,
			"target":34962
		},
		{
			"buffer":0,
			"byteLength":9624,
			"byteOffset":9624,
			"target":34962
		},
		{
			"buffer":0,
			"byteLength":6416,
			"byteOffset":19248,
			"target":34962
		},
		{
			"buffer":0,
			"byteLength":3384,
			"byteOffset":25664,
			"target":34963
		},
		{
			"buffer":0,
			"byteLength":4356,
			"byteOffset":29048,
			"target":34962
		},
		{
			"buffer":0,
			"byteLength":4356,
			"byteOffset":33404,
			"target":34962
		},
		{
			"buffer":0,
			"byteLength":2904,
			"byteOffset":37760,
			"target":34962
		},
		{
			"buffer":0,
			"byteLength":1350,
			"byteOffset":40664,
			"target":34963
		},
		{
			"buffer":0,
			"byteLength":3432,
			"byteOffset":42016,
			"target":34962
		},
		{
			"buffer":0,
			"byteLength":3432,
			"byteOffset":45448,
			"target":34962
		},
		{
			"buffer":0,
			"byteLength":2288,
			"byteOffset":48880,
			"target":34962
		},
		{
			"buffer":0,
			"byteLength":900,
			"byteOffset":51168,
			"target":34963
		},
		{
			"buffer":0,
			"byteLength":27648,
			"byteOffset":52068,
			"target":34962
		},
		{
			"buffer":0,
			"byteLength":27648,
			"byteOffset":79716,
			"target":34962
		},
		{
			"buffer":0,
			"byteLength":18432,
			"byteOffset":107364,
			"target":34962
		},
		{
			"buffer":0,
			"byteLength":6912,
			"byteOffset":125796,
			"target":34963
		},
		{
			"buffer":0,
			"byteLength":27648,
			"byteOffset":132708,
			"target":34962
		},
		{
			"buffer":0,
			"byteLength":27648,
			"byteOffset":160356,
			"target":34962
		},
		{
			"buffer":0,
			"byteLength":18432,
			"byteOffset":188004,
			"target":34962
		},
		{
			"buffer":0,
			"byteLength":8052,
			"byteOffset":206436,
			"target":34962
		},
		{
			"buffer":0,
			"byteLength":8052,
			"byteOffset":214488,
			"target":34962
		},
		{
			"buffer":0,
			"byteLength":5368,
			"byteOffset":222540,
			"target":34962
		},
		{
			"buffer":0,
			"byteLength":6720,
			"byteOffset":227908,
			"target":34963
		},
		{
			"buffer":0,
			"byteLength":1152,
			"byteOffset":234628,
			"target":34962
		},
		{
			"buffer":0,
			"byteLength":1152,
			"byteOffset":235780,
			"target":34962
		},
		{
			"buffer":0,
			"byteLength":768,
			"byteOffset":236932,
			"target":34962
		},
		{
			"buffer":0,
			"byteLength":360,
			"byteOffset":237700,
			"target":34963
		},
		{
			"buffer":0,
			"byteLength":13992,
			"byteOffset":238060,
			"target":34962
		},
		{
			"buffer":0,
			"byteLength":13992,
			"byteOffset":252052,
			"target":34962
		},
		{
			"buffer":0,
			"byteLength":9328,
			"byteOffset":266044,
			"target":34962
		},
		{
			"buffer":0,
			"byteLength":4200,
			"byteOffset":275372,
			"target":34963
		},
		{
			"buffer":0,
			"byteLength":50688,
			"byteOffset":279572,
			"target":34962
		},
		{
			"buffer":0,
			"byteLength":50688,
			"byteOffset":330260,
			"target":34962
		},
		{
			"buffer":0,
			"byteLength":49152,
			"byteOffset":380948,
			"target":34963
		},
		{
			"buffer":0,
			"byteLength":50688,
			"byteOffset":430100,
			"target":34962
		},
		{
			"buffer":0,
			"byteLength":50688,
			"byteOffset":480788,
			"target":34962
		},
		{
			"buffer":0,
			"byteLength":27648,
			"byteOffset":531476,
			"target":34962
		},
		{
			"buffer":0,
			"byteLength":27648,
			"byteOffset":559124,
			"target":34962
		},
		{
			"buffer":0,
			"byteLength":18432,
			"byteOffset":586772,
			"target":34962
		},
		{
			"buffer":0,
			"byteLength":27648,
			"byteOffset":605204,
			"target":34962
		},
		{
			"buffer":0,
			"byteLength":27648,
			"byteOffset":632852,
			"target":34962
		},
		{
			"buffer":0,
			"byteLength":18432,
			"byteOffset":660500,
			"target":34962
		},
		{
			"buffer":0,
			"byteLength":8052,
			"byteOffset":678932,
			"target":34962
		},
		{
			"buffer":0,
			"byteLength":8052,
			"byteOffset":686984,
			"target":34962
		},
		{
			"buffer":0,
			"byteLength":5368,
			"byteOffset":695036,
			"target":34962
		},
		{
			"buffer":0,
			"byteLength":1152,
			"byteOffset":700404,
			"target":34962
		},
		{
			"buffer":0,
			"byteLength":1152,
			"byteOffset":701556,
			"target":34962
		},
		{
			"buffer":0,
			"byteLength":768,
			"byteOffset":702708,
			"target":34962
		},
		{
			"buffer":0,
			"byteLength":13992,
			"byteOffset":703476,
			"target":34962
		},
		{
			"buffer":0,
			"byteLength":13992,
			"byteOffset":717468,
			"target":34962
		},
		{
			"buffer":0,
			"byteLength":9328,
			"byteOffset":731460,
			"target":34962
		},
		{
			"buffer":0,
			"byteLength":50688,
			"byteOffset":740788,
			"target":34962
		},
		{
			"buffer":0,
			"byteLength":50688,
			"byteOffset":791476,
			"target":34962
		},
		{
			"buffer":0,
			"byteLength":50688,
			"byteOffset":842164,
			"target":34962
		},
		{
			"buffer":0,
			"byteLength":50688,
			"byteOffset":892852,
			"target":34962
		},
		{
			"buffer":0,
			"byteLength":12216,
			"byteOffset":943540,
			"target":34962
		},
		{
			"buffer":0,
			"byteLength":12216,
			"byteOffset":955756,
			"target":34962
		},
		{
			"buffer":0,
			"byteLength":8144,
			"byteOffset":967972,
			"target":34962
		},
		{
			"buffer":0,
			"byteLength":6120,
			"byteOffset":976116,
			"target":34963
		}
	],
	"buffers":[
		{
			"byteLength":982236,
			"uri":"Schip.bin"
		}
	]
}
